<svg width="40" height="36" viewBox="0 0 40 36" fill="none" xmlns="http://www.w3.org/2000/svg">
<path d="M37.6542 2.50371C33.8486 2.71631 26.2847 3.49014 21.6153 6.30381C21.2931 6.49795 21.1104 6.84317 21.1104 7.2041V32.078C21.1104 32.8676 21.9875 33.3666 22.7271 33.0002C27.5312 30.6199 34.4792 29.9705 37.9146 29.7928C39.0875 29.7319 39.9993 28.8064 39.9993 27.6969V4.60235C40 3.3917 38.9333 2.43262 37.6542 2.50371ZM18.384 6.30381C13.7153 3.49014 6.15139 2.71699 2.34583 2.50371C1.06667 2.43262 0 3.3917 0 4.60235V27.6976C0 28.8077 0.911806 29.7333 2.08472 29.7935C5.52153 29.9712 12.4729 30.6213 17.2771 33.0029C18.0146 33.3687 18.8889 32.8703 18.8889 32.0828V7.1918C18.8889 6.83018 18.7069 6.49863 18.384 6.30381Z" fill="#28A745"/>
</svg>
